<?xml version="1.0" encoding="UTF-8"?>
<svg version="1.1" viewBox="0 0 2048 1024" width="2160" height="1080" xmlns="http://www.w3.org/2000/svg">
<path transform="translate(0)" d="m0 0h2048v1024h-2048z" fill="#152040"/>
<path transform="translate(882,367)" d="m0 0h189l-5 15-13 35-17 46-14 38-4 9-7-6-12-12-7-8-12-12-7-8-12-12-7-8-11-11-7-8-12-12-7-8-11-11-7-8-12-12z" fill="#BFC0C1"/>
<path transform="translate(1162,221)" d="m0 0h51l-2 4-18 18-8 7-31 31-8 7-32 32-8 7-25 25h-1v-130z" fill="#8C8F95"/>
<path transform="translate(1071,227)" d="m0 0 2 1v130l-1 1-123-1 3-5 11-11 7-8 10-10 7-8 10-10 7-8 10-10 7-8 11-11 7-8 10-10 7-8 10-10z" fill="#D6D7D7"/>
<path transform="translate(1071,386)" d="m0 0 2 1v202l-6-2-24-13-23-13-10-6 1-5 11-31 11-30 16-43 11-30z" fill="#D4D4D5"/>
<path transform="translate(876,261)" d="m0 0h29l11 12 15 16 14 15 12 13 10 11-6 7-23 23h-62z" fill="#BFC0C1"/>
<path transform="translate(1431,675)" d="m0 0h69l10 2 9 4 6 5 4 8 1 4v15l-3 9-6 7-10 5-10 2h-70z" fill="#D1D1D2"/>
<path transform="translate(1029,679)" d="m0 0h71l5 3 4 5 1 6v30l-3 9-5 3-5 1h-65l-8-3-3-4-1-3v-38l3-6z" fill="#B9BABC"/>
<path transform="translate(1008,367)" d="m0 0h63l-5 15-13 35-17 46-14 38-4 9-7-6-2-2 1-134z" fill="#D8D8D8"/>
<path transform="translate(1030,271)" d="m0 0 2 1 1 8v73l-1 3 19 1v1h-102l3-5 11-11 7-8 10-10 7-8 10-10 7-8 10-10 7-8z" fill="#BFC0C1"/>
<path transform="translate(1162,221)" d="m0 0h51l-2 4-18 18-8 7-31 31-8 7-16 16-3-1v-80l-3-1z" fill="#BEBFC0"/>
<path transform="translate(876,261)" d="m0 0h29l4 6-1 89 10 1v1h-42z" fill="#8C8F95"/>
<path transform="translate(1162,674)" d="m0 0 4 2 17 12 18 13 16 12 5-2 16-12 14-10 18-13 4-2v62h-14l-1-35-15 11-18 13-7 5-4-2-17-12-15-11-6-4-1 35h-14z" fill="#BABCBD"/>
<path transform="translate(1049,446)" d="m0 0 3 3v127l-3 1-22-12-17-10 1-5 11-31 11-30z" fill="#BEBFC0"/>
<path transform="translate(645,672)" d="m0 0h95v13l-1 1h-79v11h49v14h-49v25h-15z" fill="#8D9096"/>
<path transform="translate(1319,674)" d="m0 0 5 2 66 33 11 6v-40h14l1 1v61l-5-1-23-12-47-24-8-4v40h-14z" fill="#D5D5D5"/>
<path transform="translate(778,674)" d="m0 0 6 2 46 23 19 10 13 6v-40h13v62l-19-9-28-14-19-10-16-8v39l-1 1h-13l-1-1z" fill="#B9BABC"/>
<path transform="translate(536,674)" d="m0 0 19 9 24 12 19 10 21 10v-40h13v62l-19-9-22-11-19-10-22-11v39l-1 1h-13z" fill="#8C8F95"/>
<path transform="translate(1445,688)" d="m0 0h57l8 3 5 6 1 3v11l-3 6-5 4-7 2h-56z" fill="#152040"/>
<path transform="translate(882,367)" d="m0 0h65l1 1v69l-5-4-7-8-12-12-7-8-11-11-7-8-12-12z" fill="#8C8F95"/>
<path transform="translate(1034,691)" d="m0 0h61v33h-60l-1-1z" fill="#152040"/>
<path transform="translate(916,675)" d="m0 0h94v13h-40v48h-13l-1-1v-47h-39l-1-1z" fill="#B8BABB"/>
<path transform="translate(1319,674)" d="m0 0 5 2 44 22-1 2 2 7-5 4-19-9-12-6v40h-14z" fill="#BDBFC0"/>
<path transform="translate(988,315)" d="m0 0 4 2v39l14 1v1h-57l3-5 11-11 7-8 10-10 7-8z" fill="#8C8F95"/>
<path transform="translate(1167,222)" d="m0 0h45l-2 4-17 17-8 7-13 13h-2v-40z" fill="#D6D6D7"/>
<path transform="translate(1289,675)" d="m0 0h14l1 1v59l-1 1h-13l-1-1z" fill="#B9BABC"/>
<path transform="translate(936,297)" d="m0 0 4 2 8 8 7 8 8 8 4 6-26 26h-3l-1-56z" fill="#D5D5D6"/>
<path transform="translate(891,675)" d="m0 0h13l1 1v59l-1 1h-13z" fill="#B7B8BA"/>
<path transform="translate(750,675)" d="m0 0h13v61h-13l-1-1v-59z" fill="#BABCBD"/>
<path transform="translate(507,675)" d="m0 0h13v61h-13l-1-1v-59z" fill="#8C8F95"/>
<path transform="translate(1029,500)" d="m0 0 3 4v61l-3 1-19-11 1-5 11-31z" fill="#8C8F95"/>
<path transform="translate(1029,781)" d="m0 0h25v22l-1 2h-24v-5h19l1-2h-19l-2-2v-13z" fill="#AFB1B3"/>
<path transform="translate(1203,246)" d="m0 0 7 1 12 4-1 3-21 12-26 15-9 5-2-1 20-20 8-7z" fill="#B9BABC"/>
<path transform="translate(867,265)" d="m0 0h1v31h-21l-11-1 4-5 8-7 9-9 8-7z" fill="#BCBDBE"/>
<path transform="translate(1121,774)" d="m0 0h4v24h-24l-2-3v-12l3-3h19z" fill="#B4B5B7"/>
<path transform="translate(1069,774)" d="m0 0h27v6h-23v3h14l1 5-1 1h-14l1 3 22 1v5h-28v-23z" fill="#B4B5B7"/>
<path transform="translate(1252,781)" d="m0 0h23l2 2v13l-1 2h-24l-1-1v-15z" fill="#C6C7C8"/>
<path transform="translate(900,781)" d="m0 0h23l2 3v11l-2 3h-23l-1-1v-15z" fill="#ABADB0"/>
<path transform="translate(1186,781)" d="m0 0h23l2 4v13h-24l-2-3v-6l2-2h19v-2h-20z" fill="#A7A9AD"/>
<path transform="translate(785,781)" d="m0 0h23l1 1v16h-23l-2-3v-6l2-2h19v-2h-20z" fill="#83878F"/>
<path transform="translate(844,781)" d="m0 0h23v4h-20v2h19l2 2v7l-2 2h-23v-5l3-1-3-2v-7z" fill="#B0B1B4"/>
<path transform="translate(1215,774)" d="m0 0h4l1 6h20v5l-20 1-1 7h21v5h-23l-2-2-1-10-2-1v-4h3z" fill="#C5C6C7"/>
<path transform="translate(874,774)" d="m0 0h22v5h-21v2h21v4h-21v13h-4v-22z" fill="#AEAFB2"/>
<path transform="translate(725,774)" d="m0 0h31l1 1v5h-13v18h-5v-18h-14z" fill="#8C8F95"/>
<path transform="translate(955,781)" d="m0 0h30l1 1v16h-4v-13h-9v13h-4v-13h-10v13h-4z" fill="#AEB0B3"/>
<path transform="translate(708,673)" d="m0 0h31v12h-78v-1l61-1v-2h2v-4l-3-1v-2h-13z" fill="#C0C1C2"/>
<path transform="translate(867,265)" d="m0 0h1v30h-8l-3-2v-17l9-10z" fill="#D5D5D6"/>
<path transform="translate(1160,781)" d="m0 0h23v4h-19v8h18l1 5h-22l-2-2v-13z" fill="#B2B3B6"/>
<path transform="translate(1129,781)" d="m0 0h5v12h17v-12h4v17h-24l-2-3z" fill="#B6B8BA"/>
<path transform="translate(998,781)" d="m0 0h25l1 1v16h-4v-13h-17v12l-5 1z" fill="#AFB1B4"/>
<path transform="translate(814,781)" d="m0 0h24l1 2v15h-4v-13h-17v13h-5v-16z" fill="#96999E"/>
<path transform="translate(1281,781)" d="m0 0h24l2 2v15h-4v-13h-18v13h-4z" fill="#CECECF"/>
<path transform="translate(1204,247)" d="m0 0 9 1 9 3-1 3-15 9h-4v-10l-1-3z" fill="#D1D2D2"/>
<path transform="translate(1401,675)" d="m0 0h14l1 1v61l-5-1-3-3 6 2v-59h-12v40l-2-1z" fill="#9EA0A4"/>
<path transform="translate(759,781)" d="m0 0h20l3 5-1 3-4-1v-2h-14v11l-4 1-1-1v-15z" fill="#8C8F95"/>
<path transform="translate(929,781)" d="m0 0h20l3 3-1 5-4-1v-2h-14v12h-4z" fill="#ABADB0"/>
<path transform="translate(844,781)" d="m0 0h23v4h-20v4l17 1v2h-18l-3-2v-7z" fill="#A4A6AA"/>
<path transform="translate(903,786)" d="m0 0h17v8h-17z" fill="#152040"/>
<path transform="translate(1104,785)" d="m0 0h17v8h-17z" fill="#152040"/>
<path transform="translate(1255,786)" d="m0 0h17v8h-16l-1-1z" fill="#152040"/>
<path transform="translate(1033,785)" d="m0 0h16v8h-17v-7z" fill="#152040"/>
<path transform="translate(1160,781)" d="m0 0h23v4h-20v9l-3-1z" fill="#C1C2C3"/>
<path transform="translate(1183,265)" d="m0 0 2 1-3 4 1 6-18 10-2-1z" fill="#8C8F95"/>
<path transform="translate(1186,781)" d="m0 0h23l1 2h-4v2h-20z" fill="#C4C5C6"/>
<path transform="translate(845,286)" d="m0 0 2 1v7l21 1v1h-21l-11-1 4-5z" fill="#8C8F95"/>
<path transform="translate(1189,794)" d="m0 0h17l2 2 1-2-1 4h-21l3-1z" fill="#C9CACA"/>
<path transform="translate(1243,781)" d="m0 0h4v17h-4z" fill="#BCBEC0"/>
<path transform="translate(990,781)" d="m0 0h4v17h-4z" fill="#A4A6AA"/>
<path transform="translate(836,785)" d="m0 0 3 1v11h-3z" fill="#C0C1C2"/>
</svg>
